<svg t="1590821560837" class="icon" viewBox="0 0 1041 1024" version="1.1" xmlns="http://www.w3.org/2000/svg" p-id="1238" width="40" height="40"><path d="M317.749065 1024a68.198553 68.198553 0 1 1 68.198553-68.198553 68.453979 68.453979 0 0 1-68.198553 68.198553zM391.056124 844.94687a127.712647 127.712647 0 0 1-125.158394-102.170118L159.896233 108.044899a103.958094 103.958094 0 0 0-103.702669-61.30207H23.243702A23.499127 23.499127 0 0 1 23.499127 0h51.085059a127.712647 127.712647 0 0 1 124.136692 102.170117l7.407334 44.954852h746.863557a88.632577 88.632577 0 0 1 71.519082 33.971564 82.246944 82.246944 0 0 1 13.02669 73.307059l-81.480669 317.238214c-15.070092 53.383886-68.964829 110.343727-125.158394 110.343727l-528.985782 39.59092 2.554253 15.325518a95.273634 95.273634 0 0 0 78.670991 61.30207h607.912197a23.499127 23.499127 0 1 1 0 46.742829z m-96.806186-170.368671l528.985782-39.08007a102.170117 102.170117 0 0 0 86.078323-69.220254l81.225244-317.49364a48.530806 48.530806 0 0 0-3.065104-42.911449 41.123472 41.123472 0 0 0-34.482414-12.260414H214.046396zM847.245697 1024a68.198553 68.198553 0 1 1 68.198553-68.198553 68.198553 68.198553 0 0 1-68.198553 68.198553z" fill="#d32f2f" p-id="1239"></path></svg>