<svg t="1590825581210" class="icon" viewBox="0 0 1024 1024" version="1.1" xmlns="http://www.w3.org/2000/svg" p-id="1159" width="20" height="20"><path d="M512 0C230.4 0 0 230.4 0 512c0 281.6 230.4 512 512 512 281.6 0 512-230.4 512-512C1024 230.4 793.6 0 512 0zM716.8 563.2l-153.6 0 0 153.6c0 30.72-20.48 51.2-51.2 51.2s-51.2-20.48-51.2-51.2l0-153.6L307.2 563.2c-30.72 0-51.2-20.48-51.2-51.2 0-30.72 20.48-51.2 51.2-51.2l153.6 0L460.8 307.2c0-30.72 20.48-51.2 51.2-51.2s51.2 20.48 51.2 51.2l0 153.6 153.6 0c30.72 0 51.2 20.48 51.2 51.2C768 542.72 747.52 563.2 716.8 563.2z" p-id="1160" fill="#d32f2f"></path></svg>